<svg xmlns="http://www.w3.org/2000/svg" width="60" height="46" viewBox="0 0 60 46">
    <g fill="none" fill-rule="evenodd" opacity=".465">
        <g fill="#565D64" fill-rule="nonzero">
            <g>
                <path d="M33.419 13.23c-6.691.01-12.105 5.34-12.119 11.916.014 6.588 5.428 11.912 12.119 11.929 6.686-.017 12.098-5.341 12.108-11.929-.01-6.58-5.422-11.906-12.108-11.916zm17.97-5.867H47.7L42.992.779C42.648.295 42.079 0 41.48 0H25.36c-.603 0-1.172.295-1.519.779l-4.706 6.584h-2.522V7.31c0-1.379-1.137-2.497-2.539-2.497h-4.7c-1.4 0-2.538 1.118-2.538 2.497v.236C2.934 8.349 0 11.754 0 15.839v21.684C0 42.206 3.853 46 8.606 46h42.783C56.145 46 60 42.206 60 37.523V15.84c0-4.683-3.855-8.476-8.611-8.476zM9.176 19.624c-1.778 0-3.216-1.413-3.216-3.162 0-1.747 1.438-3.16 3.216-3.16 1.772 0 3.214 1.413 3.214 3.16 0 1.749-1.442 3.162-3.214 3.162zM33.42 41.317c-9.072 0-16.426-7.237-16.431-16.17.005-8.923 7.359-16.16 16.431-16.166 9.072.006 16.421 7.243 16.425 16.165 0 8.934-7.353 16.171-16.425 16.171z" transform="translate(-599.000000, -631.000000) translate(599.000000, 631.000000)"/>
            </g>
        </g>
    </g>
</svg>
